<svg width="256" height="256" viewBox="0 0 256 256" fill="none" xmlns="http://www.w3.org/2000/svg">
<circle cx="128" cy="128" r="128" fill="#885EA8"/>
<path d="M20.9778 174.481C22.3901 174.59 23.6938 174.644 24.8889 174.644C28.4741 174.644 30.9728 173.83 32.3852 172.2C33.9062 170.57 34.6667 167.257 34.6667 162.259V79.1481H24.8889V71H54.2222V79.1481H44.4444V161.119C44.4444 168.398 43.0321 173.938 40.2074 177.741C37.4914 181.543 32.7111 183.444 25.8667 183.444C24.237 183.444 22.6074 183.281 20.9778 182.956V174.481ZM84.1549 160.63C77.4191 160.63 71.2265 159.326 65.5771 156.719V142.704H74.0512V151.178C77.3104 152.156 80.8956 152.644 84.8067 152.644C89.6956 152.644 93.1179 151.83 95.0734 150.2C97.1376 148.462 98.1697 146.072 98.1697 143.03C98.1697 140.205 96.9746 137.978 94.5845 136.348C92.1944 134.61 88.4462 132.817 83.3401 130.97C76.1697 128.363 71.2808 125.593 68.6734 122.659C66.066 119.617 64.7623 116.086 64.7623 112.067C64.7623 106.743 66.8808 102.398 71.1179 99.0296C75.3549 95.5531 80.787 93.8148 87.4142 93.8148C93.4981 93.8148 99.2561 95.1185 104.688 97.7259V111.741H96.2142V103.104C93.7154 102.126 90.6191 101.637 86.9253 101.637C82.7969 101.637 79.7006 102.506 77.6364 104.244C75.5722 105.874 74.5401 108.047 74.5401 110.763C74.5401 113.479 75.6265 115.652 77.7993 117.281C80.0808 118.802 83.6117 120.432 88.3919 122.17C95.2364 124.56 100.18 127.222 103.222 130.156C106.372 133.089 107.947 137 107.947 141.889C107.947 147.538 105.775 152.101 101.429 155.578C97.0833 158.946 91.3253 160.63 84.1549 160.63ZM118.516 127.548C118.516 117.227 121.015 109.025 126.013 102.941C131.119 96.8568 137.529 93.8148 145.242 93.8148C152.956 93.8148 159.094 96.6395 163.657 102.289C168.329 107.938 170.664 115.869 170.664 126.081C170.664 136.511 168.22 144.877 163.331 151.178C158.442 157.479 152.032 160.63 144.101 160.63C136.279 160.63 130.032 157.642 125.361 151.667C120.798 145.583 118.516 137.543 118.516 127.548ZM128.783 126.081C128.783 134.664 130.141 141.237 132.857 145.8C135.682 150.254 139.701 152.481 144.916 152.481C149.805 152.481 153.608 150.417 156.324 146.289C159.04 142.052 160.398 135.642 160.398 127.059C160.398 110.328 155.074 101.963 144.427 101.963C139.321 101.963 135.41 103.919 132.694 107.83C130.087 111.632 128.783 117.716 128.783 126.081ZM181.252 150.852H189.4V103.593H181.252V95.4444H198.526L199.015 103.919H199.178C205.045 97.1827 211.781 93.8148 219.386 93.8148C224.818 93.8148 228.783 95.3901 231.282 98.5407C233.781 101.583 235.03 105.928 235.03 111.578V150.852H243.178V159H218.734V150.852H225.252V112.881C225.252 108.536 224.492 105.657 222.971 104.244C221.45 102.723 219.331 101.963 216.615 101.963C210.314 101.963 204.502 105.331 199.178 112.067V150.852H205.697V159H181.252V150.852Z" fill="#FDD959"/>
</svg>
